<svg xmlns="http://www.w3.org/2000/svg" data-name="Layer 1" viewBox="0 0 100 125" x="0px" y="0px"><title>01</title><g data-name="Group"><path data-name="Path" d="M71,52.4,66.1,41,58.7,57.8a3.3,3.3,0,0,1-2.8,2,3.5,3.5,0,0,1-3.1-1.5l-3.9-5.9L42,64.9a3.2,3.2,0,0,1-2.9,1.7h-.3a3.5,3.5,0,0,1-2.9-2.2L29.6,47l-2.9,5.6a3.4,3.4,0,0,1-3,1.9h-12c5.7,12.4,17.9,24.6,38.4,32.8C70.4,79,82.5,66.8,88.2,54.5H74.1A3.3,3.3,0,0,1,71,52.4Z"/><path data-name="Path" d="M71,12.9c-5.9,0-12.4,2.5-18.9,7.2a3.5,3.5,0,0,1-4.1,0c-6.5-4.8-13.1-7.4-19-7.4-10.2,0-18.2,7.4-20.4,18.8a36.3,36.3,0,0,0,.7,16.3H21.6l5.5-10.7a3.2,3.2,0,0,1,3.2-1.8,3.3,3.3,0,0,1,2.9,2.2l6.5,17.8,6.1-11a3.4,3.4,0,0,1,2.8-1.7,3.5,3.5,0,0,1,2.9,1.5L55,49.5l8.2-18.3a3.3,3.3,0,0,1,3-2h0a3.3,3.3,0,0,1,3.1,2.1l7,16.5H90.7a36.4,36.4,0,0,0,.7-16.3C89.1,20,81.3,12.9,71,12.9Z"/></g><text x="0" y="115" fill="#000000" font-size="5px" font-weight="bold" font-family="'Helvetica Neue', Helvetica, Arial-Unicode, Arial, Sans-serif">Created by kinsley</text><text x="0" y="120" fill="#000000" font-size="5px" font-weight="bold" font-family="'Helvetica Neue', Helvetica, Arial-Unicode, Arial, Sans-serif">from the Noun Project</text></svg>